<?xml version="1.0" encoding="UTF-8" standalone="no"?>
<!-- Created with Inkscape (http://www.inkscape.org/) -->

<svg
   width="300"
   height="300"
   viewBox="0 0 79.375 79.374998"
   version="1.1"
   id="svg5"
   xml:space="preserve"
   inkscape:version="1.2.2 (b0a8486541, 2022-12-01)"
   sodipodi:docname="tool-library.svg"
   xmlns:inkscape="http://www.inkscape.org/namespaces/inkscape"
   xmlns:sodipodi="http://sodipodi.sourceforge.net/DTD/sodipodi-0.dtd"
   xmlns:xlink="http://www.w3.org/1999/xlink"
   xmlns="http://www.w3.org/2000/svg"
   xmlns:svg="http://www.w3.org/2000/svg"><sodipodi:namedview
     id="namedview7"
     pagecolor="#ffffff"
     bordercolor="#666666"
     borderopacity="1.0"
     inkscape:showpageshadow="2"
     inkscape:pageopacity="0.0"
     inkscape:pagecheckerboard="0"
     inkscape:deskcolor="#d1d1d1"
     inkscape:document-units="mm"
     showgrid="false"
     inkscape:zoom="3.3979824"
     inkscape:cx="145.96897"
     inkscape:cy="118.3055"
     inkscape:window-width="2818"
     inkscape:window-height="1645"
     inkscape:window-x="1901"
     inkscape:window-y="91"
     inkscape:window-maximized="0"
     inkscape:current-layer="g8077" /><defs
     id="defs2"><linearGradient
       inkscape:collect="always"
       id="linearGradient3234"><stop
         style="stop-color:#939393;stop-opacity:1;"
         offset="0"
         id="stop3230" /><stop
         style="stop-color:#a6a6a6;stop-opacity:1;"
         offset="1"
         id="stop3232" /></linearGradient><linearGradient
       inkscape:collect="always"
       id="linearGradient3197"><stop
         style="stop-color:#c2c2c2;stop-opacity:1;"
         offset="0"
         id="stop3193" /><stop
         style="stop-color:#bcbcbc;stop-opacity:1;"
         offset="1"
         id="stop3195" /></linearGradient><linearGradient
       inkscape:collect="always"
       id="linearGradient3164"><stop
         style="stop-color:#7f7f7f;stop-opacity:1;"
         offset="0"
         id="stop3160" /><stop
         style="stop-color:#d1d1d1;stop-opacity:1;"
         offset="1"
         id="stop3162" /></linearGradient><linearGradient
       inkscape:collect="always"
       id="linearGradient2387"><stop
         style="stop-color:#757575;stop-opacity:1;"
         offset="0"
         id="stop2383" /><stop
         style="stop-color:#e2e2e2;stop-opacity:1;"
         offset="1"
         id="stop2385" /></linearGradient><linearGradient
       inkscape:collect="always"
       id="linearGradient1597"><stop
         style="stop-color:#a2a2a2;stop-opacity:1;"
         offset="0"
         id="stop1593" /><stop
         style="stop-color:#f9f9f9;stop-opacity:1;"
         offset="1"
         id="stop1595" /></linearGradient><linearGradient
       inkscape:collect="always"
       xlink:href="#linearGradient1597"
       id="linearGradient1599"
       x1="87.435623"
       y1="79.357056"
       x2="111.22856"
       y2="73.90403"
       gradientUnits="userSpaceOnUse" /><linearGradient
       inkscape:collect="always"
       xlink:href="#linearGradient2387"
       id="linearGradient2389"
       x1="96.292923"
       y1="98.227234"
       x2="115.44387"
       y2="101.37556"
       gradientUnits="userSpaceOnUse" /><linearGradient
       inkscape:collect="always"
       xlink:href="#linearGradient3164"
       id="linearGradient3166"
       x1="105.2982"
       y1="113.63973"
       x2="121.38458"
       y2="107.85011"
       gradientUnits="userSpaceOnUse" /><linearGradient
       inkscape:collect="always"
       xlink:href="#linearGradient3197"
       id="linearGradient3199"
       x1="114.56518"
       y1="99.303268"
       x2="106.60018"
       y2="108.47805"
       gradientUnits="userSpaceOnUse" /><linearGradient
       inkscape:collect="always"
       xlink:href="#linearGradient3234"
       id="linearGradient3236"
       x1="117.31676"
       y1="115.81714"
       x2="120.31398"
       y2="115.81714"
       gradientUnits="userSpaceOnUse" /><marker
       style="overflow:visible"
       id="marker1181-3"
       refX="0"
       refY="0"
       orient="auto"><path
         transform="matrix(1.1,0,0,1.1,1.1,0)"
         d="M 8.7185878,4.0337352 -2.2072895,0.01601326 8.7185884,-4.0017078 c -1.7454984,2.3720609 -1.7354408,5.6174519 -6e-7,8.035443 z"
         style="fill:#000000;fill-opacity:1;fill-rule:evenodd;stroke:#000000;stroke-width:0.625;stroke-linejoin:round;stroke-opacity:1"
         id="path1179-6" /></marker><marker
       style="overflow:visible"
       id="marker1185-7"
       refX="0"
       refY="0"
       orient="auto"><path
         transform="matrix(-1.1,0,0,-1.1,-1.1,0)"
         d="M 8.7185878,4.0337352 -2.2072895,0.01601326 8.7185884,-4.0017078 c -1.7454984,2.3720609 -1.7354408,5.6174519 -6e-7,8.035443 z"
         style="fill:#000000;fill-opacity:1;fill-rule:evenodd;stroke:#000000;stroke-width:0.625;stroke-linejoin:round;stroke-opacity:1"
         id="path1183-5" /></marker><marker
       style="overflow:visible"
       id="marker1181-3-6"
       refX="0"
       refY="0"
       orient="auto"><path
         transform="matrix(1.1,0,0,1.1,1.1,0)"
         d="M 8.7185878,4.0337352 -2.2072895,0.01601326 8.7185884,-4.0017078 c -1.7454984,2.3720609 -1.7354408,5.6174519 -6e-7,8.035443 z"
         style="fill:#000000;fill-opacity:1;fill-rule:evenodd;stroke:#000000;stroke-width:0.625;stroke-linejoin:round;stroke-opacity:1"
         id="path1179-6-7" /></marker><marker
       style="overflow:visible"
       id="marker1185-7-5"
       refX="0"
       refY="0"
       orient="auto"><path
         transform="matrix(-1.1,0,0,-1.1,-1.1,0)"
         d="M 8.7185878,4.0337352 -2.2072895,0.01601326 8.7185884,-4.0017078 c -1.7454984,2.3720609 -1.7354408,5.6174519 -6e-7,8.035443 z"
         style="fill:#000000;fill-opacity:1;fill-rule:evenodd;stroke:#000000;stroke-width:0.625;stroke-linejoin:round;stroke-opacity:1"
         id="path1183-5-3" /></marker><marker
       style="overflow:visible"
       id="Arrow2Lstart-3"
       refX="0"
       refY="0"
       orient="auto"><path
         transform="matrix(1.1,0,0,1.1,1.1,0)"
         d="M 8.7185878,4.0337352 -2.2072895,0.01601326 8.7185884,-4.0017078 c -1.7454984,2.3720609 -1.7354408,5.6174519 -6e-7,8.035443 z"
         style="fill:#000000;fill-opacity:1;fill-rule:evenodd;stroke:#000000;stroke-width:0.625;stroke-linejoin:round;stroke-opacity:1"
         id="path917-5" /></marker><marker
       style="overflow:visible"
       id="Arrow2Lend-6"
       refX="0"
       refY="0"
       orient="auto"><path
         transform="matrix(-1.1,0,0,-1.1,-1.1,0)"
         d="M 8.7185878,4.0337352 -2.2072895,0.01601326 8.7185884,-4.0017078 c -1.7454984,2.3720609 -1.7354408,5.6174519 -6e-7,8.035443 z"
         style="fill:#000000;fill-opacity:1;fill-rule:evenodd;stroke:#000000;stroke-width:0.625;stroke-linejoin:round;stroke-opacity:1"
         id="path920-2" /></marker><marker
       style="overflow:visible"
       id="marker1181"
       refX="0"
       refY="0"
       orient="auto"><path
         transform="matrix(1.1,0,0,1.1,1.1,0)"
         d="M 8.7185878,4.0337352 -2.2072895,0.01601326 8.7185884,-4.0017078 c -1.7454984,2.3720609 -1.7354408,5.6174519 -6e-7,8.035443 z"
         style="fill:#000000;fill-opacity:1;fill-rule:evenodd;stroke:#000000;stroke-width:0.625;stroke-linejoin:round;stroke-opacity:1"
         id="path1179" /></marker><marker
       style="overflow:visible"
       id="marker1185"
       refX="0"
       refY="0"
       orient="auto"><path
         transform="matrix(-1.1,0,0,-1.1,-1.1,0)"
         d="M 8.7185878,4.0337352 -2.2072895,0.01601326 8.7185884,-4.0017078 c -1.7454984,2.3720609 -1.7354408,5.6174519 -6e-7,8.035443 z"
         style="fill:#000000;fill-opacity:1;fill-rule:evenodd;stroke:#000000;stroke-width:0.625;stroke-linejoin:round;stroke-opacity:1"
         id="path1183" /></marker><marker
       style="overflow:visible"
       id="marker1173"
       refX="0"
       refY="0"
       orient="auto"><path
         transform="matrix(1.1,0,0,1.1,1.1,0)"
         d="M 8.7185878,4.0337352 -2.2072895,0.01601326 8.7185884,-4.0017078 c -1.7454984,2.3720609 -1.7354408,5.6174519 -6e-7,8.035443 z"
         style="fill:#000000;fill-opacity:1;fill-rule:evenodd;stroke:#000000;stroke-width:0.625;stroke-linejoin:round;stroke-opacity:1"
         id="path1171" /></marker><marker
       style="overflow:visible"
       id="marker1177"
       refX="0"
       refY="0"
       orient="auto"><path
         transform="matrix(-1.1,0,0,-1.1,-1.1,0)"
         d="M 8.7185878,4.0337352 -2.2072895,0.01601326 8.7185884,-4.0017078 c -1.7454984,2.3720609 -1.7354408,5.6174519 -6e-7,8.035443 z"
         style="fill:#000000;fill-opacity:1;fill-rule:evenodd;stroke:#000000;stroke-width:0.625;stroke-linejoin:round;stroke-opacity:1"
         id="path1175" /></marker><marker
       style="overflow:visible"
       id="Arrow2Lstart"
       refX="0"
       refY="0"
       orient="auto"><path
         transform="matrix(1.1,0,0,1.1,1.1,0)"
         d="M 8.7185878,4.0337352 -2.2072895,0.01601326 8.7185884,-4.0017078 c -1.7454984,2.3720609 -1.7354408,5.6174519 -6e-7,8.035443 z"
         style="fill:#000000;fill-opacity:1;fill-rule:evenodd;stroke:#000000;stroke-width:0.625;stroke-linejoin:round;stroke-opacity:1"
         id="path917" /></marker><marker
       style="overflow:visible"
       id="Arrow2Lend"
       refX="0"
       refY="0"
       orient="auto"><path
         transform="matrix(-1.1,0,0,-1.1,-1.1,0)"
         d="M 8.7185878,4.0337352 -2.2072895,0.01601326 8.7185884,-4.0017078 c -1.7454984,2.3720609 -1.7354408,5.6174519 -6e-7,8.035443 z"
         style="fill:#000000;fill-opacity:1;fill-rule:evenodd;stroke:#000000;stroke-width:0.625;stroke-linejoin:round;stroke-opacity:1"
         id="path920" /></marker><filter
       style="color-interpolation-filters:sRGB;"
       inkscape:label="Lighting"
       id="filter8354"
       x="-0.0042816143"
       y="-9.4185693e-06"
       width="1.0084685"
       height="1.0017932"><feComponentTransfer
         in="blur"
         result="component"
         id="feComponentTransfer8352"><feFuncR
           type="gamma"
           amplitude="8.2487"
           exponent="7.76496"
           offset="0.627686"
           id="feFuncR8346" /><feFuncG
           type="gamma"
           amplitude="8.2487"
           exponent="7.76496"
           offset="0.627686"
           id="feFuncG8348" /><feFuncB
           type="gamma"
           amplitude="8.2487"
           exponent="7.76496"
           offset="0.627686"
           id="feFuncB8350" /></feComponentTransfer></filter></defs><g
     inkscape:label="Layer 1"
     inkscape:groupmode="layer"
     id="layer1"><circle
       style="opacity:1;fill:#495e80;fill-opacity:1;stroke:none;stroke-width:1;stroke-linecap:round;stroke-linejoin:round"
       id="path1449"
       cx="39.6875"
       cy="39.6875"
       r="34.829597" /><g
       id="g8077"
       transform="matrix(0.73699206,0,0,0.73699206,-37.692902,-33.268609)"
       style="filter:url(#filter8354)"><path
         style="fill:none;fill-opacity:1;stroke:#000000;stroke-width:0.264583px;stroke-linecap:butt;stroke-linejoin:miter;stroke-opacity:1"
         d="m 89.757245,92.836401 c 0.735048,-23.182898 0.176468,-7.2087 0.303143,-31.118229 m 30.330472,0 v 2.373377 l -3.87296,8.953935"
         id="path2327"
         sodipodi:nodetypes="ccccc" /><path
         style="fill:url(#linearGradient1599);fill-opacity:1;stroke:#000000;stroke-width:0.264583px;stroke-linecap:butt;stroke-linejoin:miter;stroke-opacity:1"
         d="m 90.987914,109.25169 c 0,0 -1.301078,-12.270065 -1.231083,-16.442779 0.06349,-3.784897 1.328745,-7.476431 2.483781,-11.08134 0.908083,-2.834159 1.96034,-5.662241 3.473918,-8.224692 2.144669,-3.630874 3.614411,-9.848502 7.83047,-9.936268 4.53089,-0.09432 8.8523,10.318792 8.8523,10.318792"
         id="path718"
         sodipodi:nodetypes="cssssc" /><path
         style="fill:#efecec;fill-opacity:1;stroke:#000000;stroke-width:0.264583px;stroke-linecap:butt;stroke-linejoin:miter;stroke-opacity:1"
         d="m 89.844349,121.81781 c 0,0 -0.374726,-2.85356 -0.137909,-5.07303 0.529683,-4.96424 0.651453,-8.84195 7.538813,-21.244951 6.887357,-12.403005 15.049997,-21.726894 15.049997,-21.726894 l 4.45621,-0.974016"
         id="path716"
         sodipodi:nodetypes="cszcc" /><path
         style="fill:url(#linearGradient2389);fill-opacity:1;stroke:#000000;stroke-width:0.264583px;stroke-linecap:butt;stroke-linejoin:miter;stroke-opacity:1"
         d="m 98.008799,105.52679 c -2.556205,4.98328 -8.454517,15.92119 -8.454517,15.92119 0,0 -0.139024,8.21035 0.817752,10.21131 2.318803,4.84946 6.938474,4.49066 13.679936,4.45441 6.74146,-0.0362 14.33284,0.39389 16.26975,-4.45441 0.72165,-1.80637 -2.27773,-23.18175 -2.27773,-23.18175 l 2.3172,-15.158378 c 0,0 0.33672,-9.604319 -0.50785,-14.297916 -0.30777,-1.710398 -1.48725,-5.148321 -1.48725,-5.148321 l 2.07939,-9.724508 c 0,0 -3.36817,8.825497 -8.24519,16.824573 -4.11979,6.757121 -10.57944,17.512173 -14.191491,24.5538 z"
         id="path726"
         sodipodi:nodetypes="scszsccsccss" /><path
         style="fill:url(#linearGradient3199);fill-opacity:1;stroke:#000000;stroke-width:0.264583px;stroke-linecap:butt;stroke-linejoin:miter;stroke-opacity:1"
         d="m 119.48817,77.812681 c 0,0 -2.45212,9.35544 -4.47589,14.673847 -2.15678,5.667926 -6.93225,15.776962 -9.77283,21.134962 -1.63804,3.08973 -6.943196,11.6459 -7.093,12.26605 -0.08968,0.37125 0.909197,10.08972 0.909197,10.08972 l 1.404643,0.0278"
         id="path728-3"
         sodipodi:nodetypes="cssscc" /><path
         style="fill:url(#linearGradient3236);fill-opacity:1;stroke:#000000;stroke-width:0.264583px;stroke-linecap:butt;stroke-linejoin:miter;stroke-opacity:1"
         d="m 118.03496,108.34301 c 0,0 -0.67913,11.90606 -0.57506,12.1859 0.12184,0.3276 2.23294,2.52039 2.23294,2.52039 0,0 0.66605,-4.56552 0.44221,-6.83893 -0.26596,-2.70122 -2.10009,-7.86736 -2.10009,-7.86736 z"
         id="path732"
         sodipodi:nodetypes="cscsc" /><path
         style="fill:url(#linearGradient3166);fill-opacity:1;stroke:#000000;stroke-width:0.264583px;stroke-linecap:butt;stroke-linejoin:miter;stroke-opacity:1"
         d="m 100.38892,135.97726 c 0,0 0.42734,-6.85473 0.87717,-8.66297 0.84424,-3.39365 1.61884,-6.72926 3.25688,-9.81899 2.84058,-5.358 7.80863,-12.85567 10.57266,-18.330658 2.36246,-4.679571 5.24333,-12.411635 5.24333,-12.411635 l -0.0921,6.766427 -1.7333,11.415836 c 0,0 -5.40334,10.13345 -7.66507,15.41525 -2.07717,4.8508 -5.51927,15.6545 -5.51927,15.6545 z"
         id="path728"
         sodipodi:nodetypes="cssccccscc" /><circle
         id="path948"
         style="fill:#e33636;stroke:#000000;stroke-width:0.264583"
         cx="117.36135"
         cy="120.74337"
         r="0.00025726418" /><circle
         id="path950"
         style="fill:#e33636;stroke:#000000;stroke-width:0.264583"
         cx="119.81761"
         cy="122.5975"
         r="0.00025726418" /></g></g></svg>
