<?xml version="1.0" encoding="UTF-8"?>
<svg xmlns="http://www.w3.org/2000/svg" xmlns:xlink="http://www.w3.org/1999/xlink" width="48" height="48">
  <defs>
    <linearGradient id="i">
      <stop offset="0" stop-color="#fff"/>
      <stop offset="1" stop-color="#fff" stop-opacity="0"/>
    </linearGradient>
    <linearGradient id="h">
      <stop offset="0" stop-color="#598bcb"/>
      <stop offset=".757" stop-color="#2f5c96"/>
      <stop offset="1" stop-color="#203e65"/>
    </linearGradient>
    <linearGradient id="g">
      <stop offset="0"/>
      <stop offset="1" stop-opacity="0"/>
    </linearGradient>
    <linearGradient id="f">
      <stop offset="0"/>
      <stop offset="1" stop-opacity="0"/>
    </linearGradient>
    <linearGradient id="e">
      <stop offset="0" stop-color="#a40000"/>
      <stop offset="1" stop-color="#ffc4c4"/>
    </linearGradient>
    <linearGradient id="d">
      <stop offset="0" stop-color="#fff"/>
      <stop offset="1" stop-color="#d3d3d3"/>
    </linearGradient>
    <linearGradient id="k">
      <stop offset="0" stop-color="#fff"/>
      <stop offset="1" stop-color="#d5d5d5"/>
    </linearGradient>
    <linearGradient id="c">
      <stop offset="0"/>
      <stop offset="1" stop-opacity="0"/>
    </linearGradient>
    <linearGradient id="j">
      <stop offset="0"/>
      <stop offset="1" stop-opacity="0"/>
    </linearGradient>
    <linearGradient id="a">
      <stop offset="0" stop-opacity="0"/>
      <stop offset=".5"/>
      <stop offset="1" stop-opacity="0"/>
    </linearGradient>
    <linearGradient xlink:href="#a" id="l" x1="302.857" x2="302.857" y1="366.648" y2="609.505" gradientTransform="matrix(2.77439 0 0 1.9697 -1892.179 -872.885)" gradientUnits="userSpaceOnUse"/>
    <linearGradient id="b">
      <stop offset="0"/>
      <stop offset="1" stop-opacity="0"/>
    </linearGradient>
    <linearGradient xlink:href="#b" id="p" x1="7.374" x2="7.529" y1="27.377" y2="69.461" gradientTransform="matrix(3.52041 0 0 .34802 -3.038 1.544)" gradientUnits="userSpaceOnUse"/>
    <linearGradient xlink:href="#c" id="G" x1="27.5" x2="27.625" y1="14" y2="18.75" gradientTransform="matrix(1 0 0 .8 0 -1.2)" gradientUnits="userSpaceOnUse"/>
    <linearGradient xlink:href="#d" id="H" x1="26.151" x2="27.5" y1="-5.74" y2="13.352" gradientTransform="matrix(.98453 0 0 1.20359 .972 -2.123)" gradientUnits="userSpaceOnUse"/>
    <linearGradient xlink:href="#e" id="I" x1="40.5" x2="40.5" y1="13.823" y2="16.878" gradientUnits="userSpaceOnUse"/>
    <linearGradient xlink:href="#f" id="J" x1="23.5" x2="23.5" y1="12" y2="6.688" gradientUnits="userSpaceOnUse"/>
    <linearGradient xlink:href="#g" id="o" x1="25" x2="25" y1="21" y2="32.25" gradientUnits="userSpaceOnUse"/>
    <linearGradient xlink:href="#h" id="E" x1="24" x2="24" y1="15.837" y2="21" gradientUnits="userSpaceOnUse"/>
    <linearGradient xlink:href="#i" id="F" x1="21.678" x2="22.334" y1="19.97" y2="11.644" gradientUnits="userSpaceOnUse"/>
    <radialGradient xlink:href="#j" id="n" cx="605.714" cy="486.648" r="117.143" fx="605.714" fy="486.648" gradientTransform="matrix(-2.77439 0 0 1.9697 112.762 -872.885)" gradientUnits="userSpaceOnUse"/>
    <radialGradient xlink:href="#j" id="m" cx="605.714" cy="486.648" r="117.143" fx="605.714" fy="486.648" gradientTransform="matrix(2.77439 0 0 1.9697 -1891.633 -872.885)" gradientUnits="userSpaceOnUse"/>
    <radialGradient xlink:href="#k" id="s" cx="9.58" cy="33.588" r="2.553" fx="9.58" fy="33.588" gradientTransform="matrix(3.14671 .06925 -.0604 2.74461 -17.829 -61.797)" gradientUnits="userSpaceOnUse"/>
    <radialGradient xlink:href="#k" id="A" cx="9.58" cy="33.588" r="2.553" fx="9.58" fy="33.588" gradientTransform="matrix(3.14671 .06925 -.0604 2.74461 -16.182 -61.797)" gradientUnits="userSpaceOnUse"/>
    <radialGradient xlink:href="#k" id="C" cx="9.58" cy="33.588" r="2.553" fx="9.58" fy="33.588" gradientTransform="matrix(3.14671 .06925 -.0604 2.74461 -14.333 -61.897)" gradientUnits="userSpaceOnUse"/>
    <radialGradient xlink:href="#k" id="D" cx="9.58" cy="33.588" r="2.553" fx="9.58" fy="33.588" gradientTransform="matrix(3.14671 .06925 -.0604 2.74461 -12.68 -61.032)" gradientUnits="userSpaceOnUse"/>
    <radialGradient xlink:href="#k" id="B" cx="9.58" cy="33.588" r="2.553" fx="9.58" fy="33.588" gradientTransform="matrix(3.14671 .06925 -.0604 2.74461 -10.785 -60.99)" gradientUnits="userSpaceOnUse"/>
    <radialGradient xlink:href="#k" id="r" cx="9.58" cy="33.588" r="2.553" fx="9.58" fy="33.588" gradientTransform="matrix(3.14671 .06925 -.0604 2.74461 -19.584 -61.752)" gradientUnits="userSpaceOnUse"/>
    <radialGradient xlink:href="#k" id="t" cx="9.58" cy="33.588" r="2.553" fx="9.58" fy="33.588" gradientTransform="matrix(3.14671 .06925 -.0604 2.74461 -8.333 -61.897)" gradientUnits="userSpaceOnUse"/>
    <radialGradient xlink:href="#k" id="z" cx="9.58" cy="33.588" r="2.553" fx="9.58" fy="33.588" gradientTransform="matrix(3.14671 .06925 -.0604 2.74461 -6.333 -61.897)" gradientUnits="userSpaceOnUse"/>
    <radialGradient xlink:href="#k" id="y" cx="9.58" cy="33.588" r="2.553" fx="9.58" fy="33.588" gradientTransform="matrix(3.14671 .06925 -.0604 2.74461 -4.333 -61.897)" gradientUnits="userSpaceOnUse"/>
    <radialGradient xlink:href="#k" id="x" cx="9.58" cy="33.588" r="2.553" fx="9.58" fy="33.588" gradientTransform="matrix(3.14671 .06925 -.0604 2.74461 -2.333 -61.897)" gradientUnits="userSpaceOnUse"/>
    <radialGradient xlink:href="#k" id="q" cx="9.58" cy="33.588" r="2.553" fx="9.58" fy="33.588" gradientTransform="matrix(3.14671 .06925 -.0604 2.74461 -.333 -61.897)" gradientUnits="userSpaceOnUse"/>
    <radialGradient xlink:href="#k" id="v" cx="9.58" cy="33.588" r="2.553" fx="9.58" fy="33.588" gradientTransform="matrix(3.14671 .06925 -.0604 2.74461 1.667 -61.897)" gradientUnits="userSpaceOnUse"/>
    <radialGradient xlink:href="#k" id="w" cx="9.58" cy="33.588" r="2.553" fx="9.58" fy="33.588" gradientTransform="matrix(3.14671 .06925 -.0604 2.74461 3.667 -61.897)" gradientUnits="userSpaceOnUse"/>
    <radialGradient xlink:href="#k" id="u" cx="9.58" cy="33.588" r="2.553" fx="9.58" fy="33.588" gradientTransform="matrix(3.14671 .06925 -.0604 2.74461 5.667 -61.897)" gradientUnits="userSpaceOnUse"/>
  </defs>
  <g color="#000">
    <path fill="url(#l)" d="M-1559.252-150.697h1339.633V327.66h-1339.633z" opacity=".402" style="marker:none" transform="matrix(.02262 0 0 .01966 44.395 41.981)"/>
    <path fill="url(#m)" d="M-219.61876-150.68038v478.33079c142.874166.90045 345.40022-107.16966 345.40014-239.196175 0-132.026537-159.436816-239.134595-345.40014-239.134615z" opacity=".402" style="marker:none" transform="matrix(.02262 0 0 .01966 44.395 41.981)"/>
    <path fill="url(#n)" d="M-1559.2523-150.68038v478.33079c-142.8742.90045-345.4002-107.16966-345.4002-239.196175 0-132.026537 159.4368-239.134595 345.4002-239.134615z" opacity=".402" style="marker:none" transform="matrix(.02262 0 0 .01966 44.395 41.981)"/>
  </g>
  <path fill="url(#o)" d="M4.75 21h38.5l-.875 11.25H5.625L4.75 21z" color="#000" opacity=".387" style="marker:none"/>
  <path fill="#babdb6" fill-rule="evenodd" stroke="#555753" d="M4.000805 16.500028c-.0439607-.035454 1.7269248 25.505493 1.7274293 25.513235.1661293 2.550698 1.5607136 3.482935 3.1216556 3.486733.0557783.000131 29.2840441-.003283 29.9067541-.005941 2.628697-.011219 3.2727-1.634583 3.445623-3.408279.013869-.034971 1.783848-25.550776 1.797715-25.585748H4.000805z" opacity=".5"/>
  <path fill="url(#p)" d="m43.457954 20.712669-36.2500169-.023405c27.3113099.637328 32.6772069 3.648148 36.0062499 3.494311l.243767-3.470906z" color="#000" display="block" opacity=".237" style="marker:none"/>
  <g fill-rule="evenodd" stroke="#000" stroke-width="1.3" color="#000" opacity=".129">
    <path d="M29.163487 19.614074s1.115986 3.721376.353657 6.73398c-.762329 3.012604-.247896 7.862113-.247896 7.862113l1.615125.424206s-.766878-4.605734.046984-8.109542c.813862-3.503808-.353543-6.909843-.353543-6.909843l-1.414327-.000914zm-19.2510702.145267s1.1159872 3.721376.3536572 6.73398c-.7623292 3.012604-.247896 7.862113-.247896 7.862113l1.438349-.548066s-.590101-3.633462.223761-7.13727-.353543-6.909843-.353543-6.909843l-1.4143282-.000914z" style="marker:none" transform="translate(.088 .088)"/>
    <path d="M11.66716 19.714074s1.115986 3.721376.353657 6.73398c-.762329 3.012604-3.402976 5.316436-3.402976 5.316436l1.2081968 1.96573s2.7951302-3.601581 3.6089922-7.105389c.813862-3.503808-.353543-6.909843-.353543-6.909843l-1.414327-.000914zm9.496327-.1s1.115986 3.721376.353657 6.73398c-.762329 3.012604-.247896 7.862113-.247896 7.862113l1.659319.556788s-.811072-4.738316.00279-8.242124c.813862-3.503808-.353543-6.909843-.353543-6.909843l-1.414327-.000914zm14 0s1.115986 3.721376.353657 6.73398c-.762329 3.012604 1.033735 7.155006 1.033735 7.155006l1.526736-1.210978s-1.96012-2.263443-1.146258-5.767251c.813862-3.503808-.353543-6.909843-.353543-6.909843l-1.414327-.000914zm-4 0s1.115986 3.721376.353657 6.73398c-.762329 3.012604-.247896 7.862113-.247896 7.862113l1.526736-.06193s-.678489-4.119598.135373-7.623406c.813862-3.503808-.353543-6.909843-.353543-6.909843l-1.414327-.000914z" style="marker:none" transform="translate(.088 .088)"/>
    <path d="M33.163487 19.614074s1.115986 3.721376.353657 6.73398c-.762329 3.012604-1.043391 7.685336-1.043391 7.685336l1.791901.424206s-.148159-4.428957.665703-7.932765c.813862-3.503808-.353543-6.909843-.353543-6.909843l-1.414327-.000914zm-6 0s1.115986 3.721376.353657 6.73398c-.762329 3.012604.547599 7.641142.547599 7.641142l1.659319-.680648s-1.606567-3.279909-.792705-6.783717c.813862-3.503808-.353543-6.909843-.353543-6.909843l-1.414327-.000914z" style="marker:none" transform="translate(.088 .088)"/>
    <path d="M25.163487 19.614074s1.115986 3.721376.353657 6.73398c-.762329 3.012604-1.35275 7.72953-1.35275 7.72953l1.526736.203235s.426365-4.25218 1.240227-7.755988c.813862-3.503808-.353543-6.909843-.353543-6.909843l-1.414327-.000914z" style="marker:none" transform="translate(.088 .088)"/>
    <path d="M23.163487 19.614074s1.115986 3.721376.353657 6.73398c-.762329 3.012604-.247896 7.862113-.247896 7.862113l1.438348-.548066s-.590101-3.633462.223761-7.13727-.353543-6.909843-.353543-6.909843l-1.414327-.000914zm-9.849879.1s1.115986 3.721376.353657 6.73398c-.762329 3.012604-.247896 7.862113-.247896 7.862113l1.580148.388259s-.731901-4.569787.081961-8.073595c.813862-3.503808-.353543-6.909843-.353543-6.909843l-1.414327-.000914zm6.104475.806184s.197631 3.609543-.35345 6.73398c-.539772 3.060322 2.241784 7.242535 2.241784 7.242535l1.414746-.632343s-2.794401-2.615644-2.162404-6.785735c.557673-3.67968.273651-6.557523.273651-6.557523l-1.414327-.000914z" style="marker:none" transform="translate(.088 .088)"/>
    <path d="M15.163487 19.614074s1.115986 3.721376.353657 6.73398c-.762329 3.012604-.247896 7.862113-.247896 7.862113l1.438348-.548066s-.590101-3.633462.223761-7.13727-.353543-6.909843-.353543-6.909843l-1.414327-.000914z" style="marker:none" transform="translate(.088 .088)"/>
    <path d="M16.816129 20.479515s1.115986 3.721376.353657 6.73398c-.762329 3.012604-2.442798 4.590885-2.442798 4.590885l1.237969 1.135424s1.80518-2.045724 2.619042-5.549532c.813862-3.503808-.353543-6.909843-.353543-6.909843l-1.414327-.000914z" style="marker:none" transform="translate(.088 .088)"/>
  </g>
  <g fill-rule="evenodd" color="#000">
    <path fill="url(#q)" d="M29.163487 19.614074s1.115986 3.721376.353657 6.73398c-.762329 3.012604-.247896 7.862113-.247896 7.862113l1.615125.424206s-.766878-4.605734.046984-8.109542c.813862-3.503808-.353543-6.909843-.353543-6.909843l-1.414327-.000914z" style="marker:none"/>
    <path fill="url(#r)" d="M9.9124168 19.759341s1.1159872 3.721376.3536572 6.73398c-.7623292 3.012604-.247896 7.862113-.247896 7.862113l1.438349-.548066s-.590101-3.633462.223761-7.13727-.353543-6.909843-.353543-6.909843l-1.4143282-.000914z" style="marker:none"/>
    <path fill="url(#s)" d="M11.66716 19.714074s1.115986 3.721376.353657 6.73398c-.762329 3.012604-3.402976 5.316436-3.402976 5.316436l1.2081968 1.96573s2.7951302-3.601581 3.6089922-7.105389c.813862-3.503808-.353543-6.909843-.353543-6.909843l-1.414327-.000914z" style="marker:none"/>
    <path fill="url(#t)" d="M21.163487 19.614074s1.115986 3.721376.353657 6.73398c-.762329 3.012604-.247896 7.862113-.247896 7.862113l1.659319.556788s-.811072-4.738316.00279-8.242124c.813862-3.503808-.353543-6.909843-.353543-6.909843l-1.414327-.000914z" style="marker:none"/>
    <path fill="url(#u)" d="M35.163487 19.614074s1.115986 3.721376.353657 6.73398c-.762329 3.012604 1.033735 7.155006 1.033735 7.155006l1.526736-1.210978s-1.96012-2.263443-1.146258-5.767251c.813862-3.503808-.353543-6.909843-.353543-6.909843l-1.414327-.000914z" style="marker:none"/>
    <path fill="url(#v)" d="M31.163487 19.614074s1.115986 3.721376.353657 6.73398c-.762329 3.012604-.247896 7.862113-.247896 7.862113l1.526736-.06193s-.678489-4.119598.135373-7.623406c.813862-3.503808-.353543-6.909843-.353543-6.909843l-1.414327-.000914z" style="marker:none"/>
    <path fill="url(#w)" d="M33.163487 19.614074s1.115986 3.721376.353657 6.73398c-.762329 3.012604-1.043391 7.685336-1.043391 7.685336l1.791901.424206s-.148159-4.428957.665703-7.932765c.813862-3.503808-.353543-6.909843-.353543-6.909843l-1.414327-.000914z" style="marker:none"/>
    <path fill="url(#x)" d="M27.163487 19.614074s1.115986 3.721376.353657 6.73398c-.762329 3.012604.547599 7.641142.547599 7.641142l1.659319-.680648s-1.606567-3.279909-.792705-6.783717c.813862-3.503808-.353543-6.909843-.353543-6.909843l-1.414327-.000914z" style="marker:none"/>
    <path fill="url(#y)" d="M25.163487 19.614074s1.115986 3.721376.353657 6.73398c-.762329 3.012604-1.35275 7.72953-1.35275 7.72953l1.526736.203235s.426365-4.25218 1.240227-7.755988c.813862-3.503808-.353543-6.909843-.353543-6.909843l-1.414327-.000914z" style="marker:none"/>
    <path fill="url(#z)" d="M23.163487 19.614074s1.115986 3.721376.353657 6.73398c-.762329 3.012604-.247896 7.862113-.247896 7.862113l1.438348-.548066s-.590101-3.633462.223761-7.13727-.353543-6.909843-.353543-6.909843l-1.414327-.000914z" style="marker:none"/>
    <path fill="url(#A)" d="M13.313608 19.714074s1.115986 3.721376.353657 6.73398c-.762329 3.012604-.247896 7.862113-.247896 7.862113l1.580148.388259s-.731901-4.569787.081961-8.073595c.813862-3.503808-.353543-6.909843-.353543-6.909843l-1.414327-.000914z" style="marker:none"/>
    <path fill="url(#B)" d="M19.418083 20.520258s.197631 3.609543-.35345 6.73398c-.539772 3.060322 2.241784 7.242535 2.241784 7.242535l1.414746-.632343s-2.794401-2.615644-2.162404-6.785735c.557673-3.67968.273651-6.557523.273651-6.557523l-1.414327-.000914z" style="marker:none"/>
    <path fill="url(#C)" d="M15.163487 19.614074s1.115986 3.721376.353657 6.73398c-.762329 3.012604-.247896 7.862113-.247896 7.862113l1.438348-.548066s-.590101-3.633462.223761-7.13727-.353543-6.909843-.353543-6.909843l-1.414327-.000914z" style="marker:none"/>
    <path fill="url(#D)" d="M16.816129 20.479515s1.115986 3.721376.353657 6.73398c-.762329 3.012604-2.442798 4.590885-2.442798 4.590885l1.237969 1.135424s1.80518-2.045724 2.619042-5.549532c.813862-3.503808-.353543-6.909843-.353543-6.909843l-1.414327-.000914z" style="marker:none"/>
  </g>
  <path fill="none" stroke="#fff" d="M5.4146811 19.121548c-.0512567-.000134.8367519 12.817072 1.5422648 21.806255.1820049 2.307459.551916 3.246606 1.9853618 3.246606 11.8168233 0 28.6106393.086095 29.1824863.083996 2.766505-.010159 2.71473-1.037486 2.943851-3.220254.083408-.794605 1.532502-21.827229 1.518678-21.827229-9.901078 0-24.939532-.057403-37.1726419-.089374z" opacity=".629"/>
  <path fill="url(#E)" fill-rule="evenodd" stroke="#204a87" d="M7.1632325 6.56876c-1.0667623.002437-1.9595586.02711-2.445858 1.042831-.0845228.176541-2.6609163 7.341598-2.7847816 7.614844-1.06040867 2.33923-.0824951 5.285922 1.9656538 5.266193.3895076-.00363 40.3590993.018271 40.9788973 0 1.743492-.050494 1.966602-3.462731 1.21604-4.997739-.042521-.086962-3.525961-7.980943-3.614804-8.120764-.410917-.624442-1.331128-.89811-2.014672-.872479-.134653.005175-33.1672095.066811-33.3004755.067114z"/>
  <path fill="#555753" fill-rule="evenodd" d="m4.79225 20.902176 2.4999192.000088.7658514 20.610874-.7625435 3.073191c-.6069391-.486458-.8786756-1.224318-1.0162476-2.062801L4.79225 20.902176z" color="#000" opacity=".149" style="marker:none"/>
  <path fill="#eeeeec" fill-rule="evenodd" d="m8.0335688 41.611683-.712303 2.928885c.4228633.224895.735746.312261 1.1912817.466606l30.0258805-.028697c.578922-.039621 1.13067-.065799 1.514338-.171585l-2.045776-3.436018-29.9734212.240809z" color="#000" opacity=".428" style="marker:none"/>
  <path fill="#eeeeec" fill-rule="evenodd" d="m38.00699 41.370874 2.012499 3.444888c.618202-.263205 1.330342-.723813 1.611423-1.853898l1.508399-22.016654-3.447201-.002226-1.68512 20.42789z" color="#000" opacity=".371" style="marker:none"/>
  <path fill="none" stroke="url(#F)" d="M40.375 7.53125c-.067214.0002626-.187576.0308985-.3125.03125-.249848.0007031-.604044-.0010278-1.0625 0-.916912.0020555-2.221725-.0030392-3.78125 0-3.11905.0060785-7.258907.0237798-11.40625.03125-8.294686.0149403-16.6369709-.0000438-16.65625 0-.5195564.001187-.8946892.0586746-1.09375.125-.1990608.0663254-.2671378.05319-.40625.34375.0681734-.1423928.0217283-.0261148 0 .03125s-.0549217.1450013-.09375.25c-.0776567.2099974-.1852327.5262538-.3125.875-.2545346.6974923-.602838 1.61006-.9375 2.53125s-.6456998 1.849915-.90625 2.5625c-.1302751.356293-.2602216.650045-.34375.875-.0835284.224955-.0993399.274269-.1875.46875-.4116522.908093-.3939016 1.998564-.125 2.75s.6376221 1.067496 1.15625 1.0625c.1368667-.001276.7125091-.000216 1.84375 0 1.1312409.000216 2.719657-.000629 4.625 0 3.810686.001257 8.879551-.001369 13.9375 0 5.057949.001369 10.12961.000573 13.96875 0 1.91957-.000286 3.504113.001156 4.65625 0 1.152137-.001156 1.997206-.002681 1.90625 0 .095728-.002772.101126.005987.21875-.15625s.240925-.520581.3125-.9375c.14315-.833838.003994-1.950707-.21875-2.40625-.06807-.139211-.034154-.092692-.0625-.15625-.028346-.063558-.075018-.137502-.125-.25-.099964-.224995-.238788-.560032-.40625-.9375-.334924-.754935-.774004-1.748928-1.21875-2.75s-.87882-1.9902103-1.21875-2.75c-.169965-.3798948-.334828-.7111619-.4375-.9375-.051336-.113169-.097094-.1899821-.125-.25-.122926-.1542405-.703752-.4197021-1.0625-.40625-.099983.0038426-.043268-.0001135-.0625 0s-.028893-.0001313-.0625 0z" opacity=".387"/>
  <path fill="url(#G)" fill-rule="evenodd" d="m8 10-.625 2h32.000001l-.781853-1.92456L8 10z" color="#000" opacity=".83" style="marker:none"/>
  <path fill="url(#H)" fill-rule="evenodd" stroke="#888a85" d="M9.8535488 1.5000014H37.167316c.195868 0 .353553.1576849.353553.3535536v9.646448H9.4999952V1.853555c0-.1958687.1576849-.3535536.3535536-.3535536z" color="#000" style="marker:none"/>
  <path fill="none" stroke="#fff" stroke-linecap="square" d="M10.499998 10.522594V2.5000011h26.004383v8.1117319" color="#000" opacity=".629" style="marker:none"/>
  <path fill="#c00" fill-rule="evenodd" stroke="#a40000" stroke-linecap="square" stroke-width="1.242" d="M43 15a2.5 1.25 0 1 1-5 0 2.5 1.25 0 1 1 5 0z" color="#000" style="marker:none" transform="matrix(.81438 0 0 .79638 7.584 3.213)"/>
  <path fill="#ef2929" fill-rule="evenodd" stroke="url(#I)" stroke-linecap="square" stroke-width="1.242" d="M43 15a2.5 1.25 0 1 1-5 0 2.5 1.25 0 1 1 5 0z" color="#000" style="marker:none" transform="matrix(.81438 0 0 .79638 7.584 2.55)"/>
  <path fill="url(#J)" d="M9 6.688h29v5.313H9z" color="#000" opacity=".273" style="marker:none"/>
  <rect width="23" height="1" x="12" y="4" color="#000" opacity=".139" rx=".5" ry=".5" style="marker:none"/>
  <rect width="15" height="1" x="12" y="6" color="#000" opacity=".139" rx=".5" ry=".5" style="marker:none"/>
  <rect width="19" height="1" x="12" y="8" color="#000" opacity=".139" rx=".5" ry=".5" style="marker:none"/>
</svg>