<?xml version="1.0" encoding="UTF-8" standalone="no"?>
<svg
   id="svg8"
   version="1.1"
   viewBox="0 0 210 297"
   height="297mm"
   width="210mm"
   sodipodi:docname="custom.svg"
   xml:space="preserve"
   inkscape:version="1.2.2 (b0a8486541, 2022-12-01)"
   xmlns:inkscape="http://www.inkscape.org/namespaces/inkscape"
   xmlns:sodipodi="http://sodipodi.sourceforge.net/DTD/sodipodi-0.dtd"
   xmlns="http://www.w3.org/2000/svg"
   xmlns:svg="http://www.w3.org/2000/svg"
   xmlns:rdf="http://www.w3.org/1999/02/22-rdf-syntax-ns#"
   xmlns:cc="http://creativecommons.org/ns#"
   xmlns:dc="http://purl.org/dc/elements/1.1/"><sodipodi:namedview
     id="namedview81"
     pagecolor="#ffffff"
     bordercolor="#666666"
     borderopacity="1.0"
     inkscape:showpageshadow="2"
     inkscape:pageopacity="0.0"
     inkscape:pagecheckerboard="0"
     inkscape:deskcolor="#d1d1d1"
     inkscape:document-units="mm"
     showgrid="false"
     inkscape:zoom="0.89263468"
     inkscape:cx="-99.144703"
     inkscape:cy="783.07511"
     inkscape:window-width="3840"
     inkscape:window-height="2005"
     inkscape:window-x="1920"
     inkscape:window-y="27"
     inkscape:window-maximized="1"
     inkscape:current-layer="svg8" /><defs
     id="defs2"><marker
       orient="auto"
       refY="0"
       refX="0"
       id="marker7593"
       style="overflow:visible"><path
         id="path7591"
         style="fill:#000000;fill-opacity:1;fill-rule:evenodd;stroke:#000000;stroke-width:0.625;stroke-linejoin:round;stroke-opacity:1"
         d="M 8.7185878,4.0337352 -2.2072895,0.01601326 8.7185884,-4.0017078 c -1.7454984,2.3720609 -1.7354408,5.6174519 -6e-7,8.035443 z"
         transform="matrix(1.1,0,0,1.1,1.1,0)" /></marker><marker
       style="overflow:visible"
       id="marker4880"
       refX="0"
       refY="0"
       orient="auto"><path
         transform="matrix(-1.1,0,0,-1.1,-1.1,0)"
         d="M 8.7185878,4.0337352 -2.2072895,0.01601326 8.7185884,-4.0017078 c -1.7454984,2.3720609 -1.7354408,5.6174519 -6e-7,8.035443 z"
         style="fill:#000000;fill-opacity:1;fill-rule:evenodd;stroke:#000000;stroke-width:0.625;stroke-linejoin:round;stroke-opacity:1"
         id="path4878" /></marker><marker
       style="overflow:visible"
       id="marker4732"
       refX="0"
       refY="0"
       orient="auto"><path
         transform="matrix(1.1,0,0,1.1,1.1,0)"
         d="M 8.7185878,4.0337352 -2.2072895,0.01601326 8.7185884,-4.0017078 c -1.7454984,2.3720609 -1.7354408,5.6174519 -6e-7,8.035443 z"
         style="fill:#000000;fill-opacity:1;fill-rule:evenodd;stroke:#000000;stroke-width:0.625;stroke-linejoin:round;stroke-opacity:1"
         id="path4730" /></marker><marker
       orient="auto"
       refY="0"
       refX="0"
       id="marker4584"
       style="overflow:visible"><path
         id="path4582"
         style="fill:#000000;fill-opacity:1;fill-rule:evenodd;stroke:#000000;stroke-width:0.625;stroke-linejoin:round;stroke-opacity:1"
         d="M 8.7185878,4.0337352 -2.2072895,0.01601326 8.7185884,-4.0017078 c -1.7454984,2.3720609 -1.7354408,5.6174519 -6e-7,8.035443 z"
         transform="matrix(-1.1,0,0,-1.1,-1.1,0)" /></marker><marker
       style="overflow:visible"
       id="marker4328"
       refX="0"
       refY="0"
       orient="auto"
       viewBox="0 0 12.705841 9.5264135"
       markerWidth="12.705841"
       markerHeight="9.5264139"
       preserveAspectRatio="xMidYMid"><path
         transform="matrix(-1.1,0,0,-1.1,-1.1,0)"
         d="M 8.7185878,4.0337352 -2.2072895,0.01601326 8.7185884,-4.0017078 c -1.7454984,2.3720609 -1.7354408,5.6174519 -6e-7,8.035443 z"
         style="fill:#000000;fill-opacity:1;fill-rule:evenodd;stroke:#000000;stroke-width:0.625;stroke-linejoin:round;stroke-opacity:1"
         id="path4326" /></marker><marker
       orient="auto"
       refY="0"
       refX="0"
       id="marker4186"
       style="overflow:visible"
       viewBox="0 0 12.705841 9.5264135"
       markerWidth="12.705841"
       markerHeight="9.5264139"
       preserveAspectRatio="xMidYMid"><path
         id="path4184"
         style="fill:#000000;fill-opacity:1;fill-rule:evenodd;stroke:#000000;stroke-width:0.625;stroke-linejoin:round;stroke-opacity:1"
         d="M 8.7185878,4.0337352 -2.2072895,0.01601326 8.7185884,-4.0017078 c -1.7454984,2.3720609 -1.7354408,5.6174519 -6e-7,8.035443 z"
         transform="matrix(1.1,0,0,1.1,1.1,0)" /></marker><marker
       style="overflow:visible"
       id="marker3948"
       refX="0"
       refY="0"
       orient="auto"><path
         transform="matrix(1.1,0,0,1.1,1.1,0)"
         d="M 8.7185878,4.0337352 -2.2072895,0.01601326 8.7185884,-4.0017078 c -1.7454984,2.3720609 -1.7354408,5.6174519 -6e-7,8.035443 z"
         style="fill:#000000;fill-opacity:1;fill-rule:evenodd;stroke:#000000;stroke-width:0.625;stroke-linejoin:round;stroke-opacity:1"
         id="path3946" /></marker><marker
       style="overflow:visible"
       id="Arrow2Lend"
       refX="0"
       refY="0"
       orient="auto"
       viewBox="0 0 12.705841 9.5264135"
       markerWidth="12.705841"
       markerHeight="9.5264139"
       preserveAspectRatio="xMidYMid"><path
         transform="matrix(-1.1,0,0,-1.1,-1.1,0)"
         d="M 8.7185878,4.0337352 -2.2072895,0.01601326 8.7185884,-4.0017078 c -1.7454984,2.3720609 -1.7354408,5.6174519 -6e-7,8.035443 z"
         style="fill:#000025;fill-opacity:1;fill-rule:evenodd;stroke:#000025;stroke-width:0.625;stroke-linejoin:round;stroke-opacity:1"
         id="path920" /></marker><marker
       style="overflow:visible"
       id="Arrow2Lstart"
       refX="0"
       refY="0"
       orient="auto"><path
         transform="matrix(1.1,0,0,1.1,1.1,0)"
         d="M 8.7185878,4.0337352 -2.2072895,0.01601326 8.7185884,-4.0017078 c -1.7454984,2.3720609 -1.7354408,5.6174519 -6e-7,8.035443 z"
         style="fill:#000025;fill-opacity:1;fill-rule:evenodd;stroke:#000025;stroke-width:0.625;stroke-linejoin:round;stroke-opacity:1"
         id="path917" /></marker><marker
       style="overflow:visible"
       id="marker7497"
       refX="0"
       refY="0"
       orient="auto"><path
         transform="scale(-0.6)"
         d="M 8.7185878,4.0337352 -2.2072895,0.01601326 8.7185884,-4.0017078 c -1.7454984,2.3720609 -1.7354408,5.6174519 -6e-7,8.035443 z"
         style="fill:#000025;fill-opacity:1;fill-rule:evenodd;stroke:#000025;stroke-width:0.625;stroke-linejoin:round;stroke-opacity:1"
         id="path7495" /></marker><marker
       style="overflow:visible"
       id="marker7379"
       refX="0"
       refY="0"
       orient="auto"><path
         transform="matrix(0.4,0,0,0.4,4,0)"
         style="fill:#000025;fill-opacity:1;fill-rule:evenodd;stroke:#000025;stroke-width:1.00000003pt;stroke-opacity:1"
         d="M 0,0 5,-5 -12.5,0 5,5 Z"
         id="path7377" /></marker><marker
       orient="auto"
       refY="0"
       refX="0"
       id="marker5480"
       style="overflow:visible"><path
         id="path5478"
         style="fill:#000000;fill-opacity:1;fill-rule:evenodd;stroke:#000000;stroke-width:0.625;stroke-linejoin:round;stroke-opacity:1"
         d="M 8.7185878,4.0337352 -2.2072895,0.01601326 8.7185884,-4.0017078 c -1.7454984,2.3720609 -1.7354408,5.6174519 -6e-7,8.035443 z"
         transform="scale(-0.6)" /></marker><marker
       orient="auto"
       refY="0"
       refX="0"
       id="marker5470"
       style="overflow:visible"><path
         id="path5468"
         style="fill:#000000;fill-opacity:1;fill-rule:evenodd;stroke:#000000;stroke-width:0.625;stroke-linejoin:round;stroke-opacity:1"
         d="M 8.7185878,4.0337352 -2.2072895,0.01601326 8.7185884,-4.0017078 c -1.7454984,2.3720609 -1.7354408,5.6174519 -6e-7,8.035443 z"
         transform="scale(-0.6)" /></marker><marker
       orient="auto"
       refY="0"
       refX="0"
       id="marker5220"
       style="overflow:visible"><path
         id="path5218"
         d="M 0,0 5,-5 -12.5,0 5,5 Z"
         style="fill:#000000;fill-opacity:1;fill-rule:evenodd;stroke:#000000;stroke-width:1.00000003pt;stroke-opacity:1"
         transform="matrix(0.4,0,0,0.4,4,0)" /></marker><marker
       orient="auto"
       refY="0"
       refX="0"
       id="marker5210"
       style="overflow:visible"><path
         id="path5208"
         d="M 0,0 5,-5 -12.5,0 5,5 Z"
         style="fill:#000000;fill-opacity:1;fill-rule:evenodd;stroke:#000000;stroke-width:1.00000003pt;stroke-opacity:1"
         transform="matrix(0.4,0,0,0.4,4,0)" /></marker><marker
       orient="auto"
       refY="0"
       refX="0"
       id="marker5072"
       style="overflow:visible"><path
         id="path5070"
         d="M 0,0 5,-5 -12.5,0 5,5 Z"
         style="fill:#000000;fill-opacity:1;fill-rule:evenodd;stroke:#000000;stroke-width:1pt;stroke-opacity:1"
         transform="matrix(-0.8,0,0,-0.8,-10,0)" /></marker><marker
       orient="auto"
       refY="0"
       refX="0"
       id="marker5014"
       style="overflow:visible"><path
         id="path5012"
         d="M 0,0 5,-5 -12.5,0 5,5 Z"
         style="fill:#000000;fill-opacity:1;fill-rule:evenodd;stroke:#000000;stroke-width:1.00000003pt;stroke-opacity:1"
         transform="matrix(-0.8,0,0,-0.8,-10,0)" /></marker><marker
       orient="auto"
       refY="0"
       refX="0"
       id="marker4968"
       style="overflow:visible"><path
         id="path4966"
         d="M 0,0 5,-5 -12.5,0 5,5 Z"
         style="fill:#000000;fill-opacity:1;fill-rule:evenodd;stroke:#000000;stroke-width:1.00000003pt;stroke-opacity:1"
         transform="matrix(-0.8,0,0,-0.8,-10,0)" /></marker><marker
       orient="auto"
       refY="0"
       refX="0"
       id="marker4884"
       style="overflow:visible"><path
         id="path4882"
         d="M 0,0 5,-5 -12.5,0 5,5 Z"
         style="fill:#000000;fill-opacity:1;fill-rule:evenodd;stroke:#000000;stroke-width:1.00000003pt;stroke-opacity:1"
         transform="matrix(0.8,0,0,0.8,10,0)" /></marker><marker
       orient="auto"
       refY="0"
       refX="0"
       id="marker4856"
       style="overflow:visible"><path
         id="path4854"
         d="M 0,0 5,-5 -12.5,0 5,5 Z"
         style="fill:#000000;fill-opacity:1;fill-rule:evenodd;stroke:#000000;stroke-width:1.00000003pt;stroke-opacity:1"
         transform="matrix(0.8,0,0,0.8,10,0)" /></marker><marker
       orient="auto"
       refY="0"
       refX="0"
       id="marker4834"
       style="overflow:visible"><path
         id="path4832"
         d="M 0,0 5,-5 -12.5,0 5,5 Z"
         style="fill:#000000;fill-opacity:1;fill-rule:evenodd;stroke:#000000;stroke-width:1.00000003pt;stroke-opacity:1"
         transform="matrix(0.8,0,0,0.8,10,0)" /></marker><marker
       orient="auto"
       refY="0"
       refX="0"
       id="marker5220-5"
       style="overflow:visible"><path
         id="path5218-3"
         d="M 0,0 5,-5 -12.5,0 5,5 Z"
         style="fill:#000000;fill-opacity:1;fill-rule:evenodd;stroke:#000000;stroke-width:1.00000003pt;stroke-opacity:1"
         transform="matrix(0.4,0,0,0.4,4,0)" /></marker><marker
       orient="auto"
       refY="0"
       refX="0"
       id="marker5480-5"
       style="overflow:visible"><path
         id="path5478-7"
         style="fill:#000000;fill-opacity:1;fill-rule:evenodd;stroke:#000000;stroke-width:0.625;stroke-linejoin:round;stroke-opacity:1"
         d="M 8.7185878,4.0337352 -2.2072895,0.01601326 8.7185884,-4.0017078 c -1.7454984,2.3720609 -1.7354408,5.6174519 -6e-7,8.035443 z"
         transform="scale(-0.6)" /></marker><marker
       orient="auto"
       refY="0"
       refX="0"
       id="marker4186-7"
       style="overflow:visible"><path
         id="path4184-5"
         style="fill:#000000;fill-opacity:1;fill-rule:evenodd;stroke:#000000;stroke-width:0.625;stroke-linejoin:round;stroke-opacity:1"
         d="M 8.7185878,4.0337352 -2.2072895,0.01601326 8.7185884,-4.0017078 c -1.7454984,2.3720609 -1.7354408,5.6174519 -6e-7,8.035443 z"
         transform="matrix(1.1,0,0,1.1,1.1,0)" /></marker><marker
       orient="auto"
       refY="0"
       refX="0"
       id="marker4584-3"
       style="overflow:visible"><path
         id="path4582-5"
         style="fill:#000000;fill-opacity:1;fill-rule:evenodd;stroke:#000000;stroke-width:0.625;stroke-linejoin:round;stroke-opacity:1"
         d="M 8.7185878,4.0337352 -2.2072895,0.01601326 8.7185884,-4.0017078 c -1.7454984,2.3720609 -1.7354408,5.6174519 -6e-7,8.035443 z"
         transform="matrix(-1.1,0,0,-1.1,-1.1,0)" /></marker><marker
       style="overflow:visible"
       id="marker4732-6"
       refX="0"
       refY="0"
       orient="auto"><path
         transform="matrix(1.1,0,0,1.1,1.1,0)"
         d="M 8.7185878,4.0337352 -2.2072895,0.01601326 8.7185884,-4.0017078 c -1.7454984,2.3720609 -1.7354408,5.6174519 -6e-7,8.035443 z"
         style="fill:#000000;fill-opacity:1;fill-rule:evenodd;stroke:#000000;stroke-width:0.625;stroke-linejoin:round;stroke-opacity:1"
         id="path4730-2" /></marker><marker
       style="overflow:visible"
       id="marker3948-9"
       refX="0"
       refY="0"
       orient="auto"><path
         transform="matrix(1.1,0,0,1.1,1.1,0)"
         d="M 8.7185878,4.0337352 -2.2072895,0.01601326 8.7185884,-4.0017078 c -1.7454984,2.3720609 -1.7354408,5.6174519 -6e-7,8.035443 z"
         style="fill:#000000;fill-opacity:1;fill-rule:evenodd;stroke:#000000;stroke-width:0.625;stroke-linejoin:round;stroke-opacity:1"
         id="path3946-1" /></marker><marker
       style="overflow:visible"
       id="marker4328-2"
       refX="0"
       refY="0"
       orient="auto"><path
         transform="matrix(-1.1,0,0,-1.1,-1.1,0)"
         d="M 8.7185878,4.0337352 -2.2072895,0.01601326 8.7185884,-4.0017078 c -1.7454984,2.3720609 -1.7354408,5.6174519 -6e-7,8.035443 z"
         style="fill:#000000;fill-opacity:1;fill-rule:evenodd;stroke:#000000;stroke-width:0.625;stroke-linejoin:round;stroke-opacity:1"
         id="path4326-7" /></marker><marker
       style="overflow:visible"
       id="Arrow2Lstart-0"
       refX="0"
       refY="0"
       orient="auto"><path
         transform="matrix(1.1,0,0,1.1,1.1,0)"
         d="M 8.7185878,4.0337352 -2.2072895,0.01601326 8.7185884,-4.0017078 c -1.7454984,2.3720609 -1.7354408,5.6174519 -6e-7,8.035443 z"
         style="fill:#000025;fill-opacity:1;fill-rule:evenodd;stroke:#000025;stroke-width:0.625;stroke-linejoin:round;stroke-opacity:1"
         id="path917-9" /></marker><marker
       style="overflow:visible"
       id="Arrow2Lend-3"
       refX="0"
       refY="0"
       orient="auto"><path
         transform="matrix(-1.1,0,0,-1.1,-1.1,0)"
         d="M 8.7185878,4.0337352 -2.2072895,0.01601326 8.7185884,-4.0017078 c -1.7454984,2.3720609 -1.7354408,5.6174519 -6e-7,8.035443 z"
         style="fill:#000025;fill-opacity:1;fill-rule:evenodd;stroke:#000025;stroke-width:0.625;stroke-linejoin:round;stroke-opacity:1"
         id="path920-6" /></marker><marker
       style="overflow:visible"
       id="marker4880-0"
       refX="0"
       refY="0"
       orient="auto"><path
         transform="matrix(-1.1,0,0,-1.1,-1.1,0)"
         d="M 8.7185878,4.0337352 -2.2072895,0.01601326 8.7185884,-4.0017078 c -1.7454984,2.3720609 -1.7354408,5.6174519 -6e-7,8.035443 z"
         style="fill:#000000;fill-opacity:1;fill-rule:evenodd;stroke:#000000;stroke-width:0.625;stroke-linejoin:round;stroke-opacity:1"
         id="path4878-6" /></marker><marker
       orient="auto"
       refY="0"
       refX="0"
       id="marker7593-2"
       style="overflow:visible"><path
         id="path7591-6"
         style="fill:#000000;fill-opacity:1;fill-rule:evenodd;stroke:#000000;stroke-width:0.625;stroke-linejoin:round;stroke-opacity:1"
         d="M 8.7185878,4.0337352 -2.2072895,0.01601326 8.7185884,-4.0017078 c -1.7454984,2.3720609 -1.7354408,5.6174519 -6e-7,8.035443 z"
         transform="matrix(1.1,0,0,1.1,1.1,0)" /></marker><marker
       orient="auto"
       refY="0"
       refX="0"
       id="marker5072-1"
       style="overflow:visible"><path
         id="path5070-8"
         d="M 0,0 5,-5 -12.5,0 5,5 Z"
         style="fill:#000000;fill-opacity:1;fill-rule:evenodd;stroke:#000000;stroke-width:1pt;stroke-opacity:1"
         transform="matrix(-0.8,0,0,-0.8,-10,0)" /></marker></defs><metadata
     id="metadata5"><rdf:RDF><cc:Work
         rdf:about=""><dc:format>image/svg+xml</dc:format><dc:type
           rdf:resource="http://purl.org/dc/dcmitype/StillImage" /></cc:Work></rdf:RDF></metadata><path
     id="rect855"
     style="fill:#c9c9c9;fill-opacity:1;stroke-width:1;stroke-linecap:round;stroke-linejoin:round;stroke:#818181;stroke-opacity:1;stroke-dasharray:none"
     d="M 78.054667 76.113184 L 78.054667 124.6048 L 28.512988 124.6048 L 28.512988 172.39568 L 78.054667 172.39568 L 78.054667 220.88729 L 131.94543 220.88729 L 131.94543 172.39568 L 181.48711 172.39568 L 181.48711 124.6048 L 131.94543 124.6048 L 131.94543 76.113184 L 78.054667 76.113184 z " /></svg>
